<svg version="1.1" id="Layer_1" xmlns:x="ns_extend;" xmlns:i="ns_ai;" xmlns:graph="ns_graphs;" xmlns="http://www.w3.org/2000/svg" xmlns:xlink="http://www.w3.org/1999/xlink" x="0px" y="0px" viewBox="0 0 201.5 72" style="enable-background:new 0 0 201.5 72;" xml:space="preserve">
 <style type="text/css">
  .st0{fill:#FFFFFF;}
	.st1{fill-rule:evenodd;clip-rule:evenodd;fill:#FFFFFF;}
 </style>
 <metadata>
  <sfw xmlns="ns_sfw;">
   <slices>
   </slices>
   <sliceSourceBounds bottomLeftOrigin="true" height="72" width="201.5" x="39.2" y="185.8">
   </sliceSourceBounds>
  </sfw>
 </metadata>
 <g>
  <path class="st0" d="M8.2,5.9c0,0.1,0,0.2,0,0.5v1c0,0.2,0,0.4,0,0.5c0.1,3.2,2.8,5.8,6.2,5.9c0.1,0,0.3,0,0.5,0c0.3,0,0.4,0,0.5,0
		c3.4-0.1,6.1-2.7,6.2-5.9c0-0.1,0-0.2,0-0.5v-1c0-0.3,0-0.4,0-0.5c-0.1-3.2-2.8-5.8-6.2-5.9c-0.1,0-0.2,0-0.5,0c-0.3,0-0.4,0-0.5,0
		C11.1,0.1,8.3,2.7,8.2,5.9L8.2,5.9z M96.7,28.6v26.2c0,4.6,1.8,6.6,7.3,6.6c2.3,0,4.6-0.6,6-1.1v10.6c-2.3,0.8-5.9,1.2-8.8,1.2
		c-11.7,0-17.2-5.8-17.2-16V3.1h12.7V20H110v8.6L96.7,28.6L96.7,28.6z M96.7,28.6">
  </path>
  <path class="st1" d="M114.3,44.5c0-15.5,9.8-26.1,25.5-26.1c16.7,0,25,12.2,24.2,29.9h-36.6c0.7,9.1,4.9,13.7,12.5,13.7
		c6.4,0,9.8-3.1,11.2-7.4h12.4C161.1,65.3,152.6,72,139.7,72c-15.9,0-25.5-10.5-25.5-26.2V44.5z M139.6,28.6
		c-7,0-11.1,3.7-12.3,11.1l23.8-0.2C150.4,32.6,146.7,28.6,139.6,28.6L139.6,28.6z M139.6,28.6">
  </path>
  <path class="st0" d="M58.4,18.4c-8.2,0-13.2,4.8-15.8,9.6l-0.6-8H29.9v50.5h12.7V42.1c0-8.4,4.4-13.5,11.2-13.5S63,33,63,40.7v29.7
		h12.7V38C75.7,26.7,70.8,18.4,58.4,18.4L58.4,18.4z M183.7,28c3.2-6.3,9.8-9.6,14.8-9.6c0.9,0,2.3,0.1,3,0.3v9.9
		c-1.2-0.1-2.5-0.2-3.7-0.2c-9,0-14.1,5.4-14.1,14.7v27.4H171V20h12.3L183.7,28z M0,20v8.6h8.6v41.9h12.7V20H0z M0,20">
  </path>
 </g>
</svg>